HIERARCHY
ROOT hip
{
  OFFSET -0.793459 72.6702 118.884
  CHANNELS 6 Xposition Yposition Zposition Zrotation Xrotation Yrotation
  JOINT abdomen
  {
    OFFSET 0 20.6881 -0.73152
    CHANNELS 3 Zrotation Xrotation Yrotation
    JOINT chest
    {
      OFFSET 0 11.7043 -0.48768
      CHANNELS 3 Zrotation Xrotation Yrotation
      JOINT neck
      {
        OFFSET 0 22.1894 -2.19456
        CHANNELS 3 Zrotation Xrotation Yrotation
        JOINT head
        {
          OFFSET -0.24384 7.07133 1.2192
          CHANNELS 3 Zrotation Xrotation Yrotation
          JOINT leftEye
          {
            OFFSET 4.14528 8.04674 8.04672
            CHANNELS 3 Zrotation Xrotation Yrotation
            End Site
            {
              OFFSET 1 0 0
            }
          }
          JOINT rightEye
          {
            OFFSET -3.6576 8.04674 8.04672
            CHANNELS 3 Zrotation Xrotation Yrotation
            End Site
            {
              OFFSET 1 0 0
            }
          }
        }
      }
      JOINT rCollar
      {
        OFFSET -2.68224 19.2634 -4.8768
        CHANNELS 3 Zrotation Xrotation Yrotation
        JOINT rShldr
        {
          OFFSET -8.77824 -1.95073 1.46304
          CHANNELS 3 Zrotation Xrotation Yrotation
          JOINT rForeArm
          {
            OFFSET -28.1742 -1.7115 0.48768
            CHANNELS 3 Zrotation Xrotation Yrotation
            JOINT rHand
            {
              OFFSET -22.5879 0.773209 7.07136
              CHANNELS 3 Zrotation Xrotation Yrotation
              JOINT rThumb1
              {
                OFFSET -1.2192 -0.487915 3.41376
                CHANNELS 3 Zrotation Xrotation Yrotation
                JOINT rThumb2
                {
                  OFFSET -3.37035 -0.52449 3.41376
                  CHANNELS 3 Zrotation Xrotation Yrotation
                  End Site
                  {
                    OFFSET -1.78271 -1.18214 1.43049
                  }
                }
              }
              JOINT rIndex1
              {
                OFFSET -7.75947 0.938293 5.60832
                CHANNELS 3 Zrotation Xrotation Yrotation
                JOINT rIndex2
                {
                  OFFSET -2.54057 -0.884171 1.56538
                  CHANNELS 3 Zrotation Xrotation Yrotation
                  End Site
                  {
                    OFFSET -1.62519 -0.234802 1.16502
                  }
                }
              }
              JOINT rMid1
              {
                OFFSET -8.24714 1.18213 3.41376
                CHANNELS 3 Zrotation Xrotation Yrotation
                JOINT rMid2
                {
                  OFFSET -3.10165 -0.590103 1.0647
                  CHANNELS 3 Zrotation Xrotation Yrotation
                  End Site
                  {
                    OFFSET -2.48547 -0.328903 0.83742
                  }
                }
              }
              JOINT rRing1
              {
                OFFSET -8.82822 0.546677 1.51678
                CHANNELS 3 Zrotation Xrotation Yrotation
                JOINT rRing2
                {
                  OFFSET -2.60934 -0.819778 -0.0198488
                  CHANNELS 3 Zrotation Xrotation Yrotation
                  End Site
                  {
                    OFFSET -2.33842 -0.294052 0.168128
                  }
                }
              }
              JOINT rPinky1
              {
                OFFSET -8.27202 -0.0477905 -0.4584
                CHANNELS 3 Zrotation Xrotation Yrotation
                JOINT rPinky2
                {
                  OFFSET -1.82734 -0.647385 -0.700984
                  CHANNELS 3 Zrotation Xrotation Yrotation
                  End Site
                  {
                    OFFSET -1.69225 -0.51767 -0.607171
                  }
                }
              }
            }
          }
        }
      }
      JOINT lCollar
      {
        OFFSET 2.68224 19.2634 -4.8768
        CHANNELS 3 Zrotation Xrotation Yrotation
        JOINT lShldr
        {
          OFFSET 8.77824 -1.95073 1.46304
          CHANNELS 3 Zrotation Xrotation Yrotation
          JOINT lForeArm
          {
            OFFSET 28.1742 -1.7115 0.48768
            CHANNELS 3 Zrotation Xrotation Yrotation
            JOINT lHand
            {
              OFFSET 22.5879 0.773209 7.07136
              CHANNELS 3 Zrotation Xrotation Yrotation
              JOINT lThumb1
              {
                OFFSET 1.2192 -0.487915 3.41376
                CHANNELS 3 Zrotation Xrotation Yrotation
                JOINT lThumb2
                {
                  OFFSET 3.37035 -0.52449 3.41376
                  CHANNELS 3 Zrotation Xrotation Yrotation
                  End Site
                  {
                    OFFSET 1.78271 -1.18214 1.43049
                  }
                }
              }
              JOINT lIndex1
              {
                OFFSET 7.75947 0.938293 5.60832
                CHANNELS 3 Zrotation Xrotation Yrotation
                JOINT lIndex2
                {
                  OFFSET 2.54057 -0.884171 1.56538
                  CHANNELS 3 Zrotation Xrotation Yrotation
                  End Site
                  {
                    OFFSET 1.62519 -0.234802 1.16502
                  }
                }
              }
              JOINT lMid1
              {
                OFFSET 8.24714 1.18213 3.41376
                CHANNELS 3 Zrotation Xrotation Yrotation
                JOINT lMid2
                {
                  OFFSET 3.10165 -0.590103 1.0647
                  CHANNELS 3 Zrotation Xrotation Yrotation
                  End Site
                  {
                    OFFSET 2.48547 -0.328903 0.83742
                  }
                }
              }
              JOINT lRing1
              {
                OFFSET 8.82822 0.546677 1.51678
                CHANNELS 3 Zrotation Xrotation Yrotation
                JOINT lRing2
                {
                  OFFSET 2.60934 -0.819778 -0.0198488
                  CHANNELS 3 Zrotation Xrotation Yrotation
                  End Site
                  {
                    OFFSET 2.33842 -0.294052 0.168128
                  }
                }
              }
              JOINT lPinky1
              {
                OFFSET 8.27202 -0.0477905 -0.4584
                CHANNELS 3 Zrotation Xrotation Yrotation
                JOINT lPinky2
                {
                  OFFSET 1.82734 -0.647385 -0.700984
                  CHANNELS 3 Zrotation Xrotation Yrotation
                  End Site
                  {
                    OFFSET 1.69225 -0.51767 -0.607171
                  }
                }
              }
            }
          }
        }
      }
    }
  }
  JOINT rButtock
  {
    OFFSET -8.77824 4.35084 1.2192
    CHANNELS 3 Zrotation Xrotation Yrotation
    JOINT rThigh
    {
      OFFSET 0 -1.70687 -2.19456
      CHANNELS 3 Zrotation Xrotation Yrotation
      JOINT rShin
      {
        OFFSET 0 -36.8199 0.73152
        CHANNELS 3 Zrotation Xrotation Yrotation
        JOINT rFoot
        {
          OFFSET 0.73152 -45.1104 -5.12064
          CHANNELS 3 Zrotation Xrotation Yrotation
          End Site
          {
            OFFSET -1.1221 -3.69964 12.103
          }
        }
      }
    }
  }
  JOINT lButtock
  {
    OFFSET 8.77824 4.35084 1.2192
    CHANNELS 3 Zrotation Xrotation Yrotation
    JOINT lThigh
    {
      OFFSET 0 -1.70687 -2.19456
      CHANNELS 3 Zrotation Xrotation Yrotation
      JOINT lShin
      {
        OFFSET 0 -36.8199 0.73152
        CHANNELS 3 Zrotation Xrotation Yrotation
        JOINT lFoot
        {
          OFFSET -0.73152 -45.1104 -5.12064
          CHANNELS 3 Zrotation Xrotation Yrotation
          End Site
          {
            OFFSET 1.1221 -3.69964 12.103
          }
        }
      }
    }
  }
}
MOTION
Frames:	8
Frame Time:	0.00833333
-159.847 67.0423 -80.1001 -10.7918 7.8207 52.1447 -7.04973 22.372 21.8941 1.99432 0.11554 5.79512 -1.57317 -26.7422 7.33299 -21.5515 -18.9299 15.4967 -0 0 0 -0 0 0 -6.62816e-013 -2.58521e-012 8.86946e-013 67.7475 -17.937 36.6673 -8.54518 -3.24258 15.4128 -0.654024 27.042 3.90941 -4.07384e-009 -1.37267e-008 5.41669e-009 -6.92823e-009 -2.37436e-008 9.43491e-009 -4.07383e-009 -1.37267e-008 5.41668e-009 7.73091 5.47488 0.417314 -4.07384e-009 -1.37267e-008 5.4167e-009 2.90554 0.965183 0.102902 -4.07384e-009 -1.37267e-008 5.41669e-009 10.2786 0.731801 0.0259123 -4.07384e-009 -1.37267e-008 5.41671e-009 2.22167 -0.733487 -0.20892 -6.63034e-013 -2.58524e-012 8.8667e-013 -65.5902 35.8683 21.1819 14.7592 -7.59135 -27.0763 0.547497 -20.5955 3.02619 6.56952e-009 -1.31706e-008 -2.51106e-009 1.13644e-008 -2.26201e-008 -4.25625e-009 6.56951e-009 -1.31706e-008 -2.51105e-009 -7.73091 5.47488 -0.417314 6.56952e-009 -1.31706e-008 -2.51105e-009 -2.90554 0.965183 -0.102902 6.56951e-009 -1.31706e-008 -2.51105e-009 -10.2786 0.731801 -0.0259123 6.56952e-009 -1.31706e-008 -2.51106e-009 -2.22167 -0.733487 0.20892 -2.03217e-016 0 -3.88251e-019 -17.7145 29.8022 8.32063 0.0633742 -2.00138 0.530069 -6.93723 -13.6215 -19.9436 2.03217e-016 0 3.88251e-019 58.0027 -46.8951 46.207 1.0459 58.4918 -1.14259 0.507583 1.47329 -0.799666 
-158.251 66.4506 -79.6422 -10.7256 8.01111 53.3682 -9.2157 22.7206 23.9377 1.38923 0.639823 6.24067 -4.64249 -28.7389 4.23248 -19.6428 -19.0482 12.0379 -0 0 0 -0 0 0 -5.0866e-013 -2.62691e-012 6.06929e-013 69.9823 -21.0295 35.7041 -6.87101 -2.46211 12.1178 -1.78849 37.1975 5.96094 -4.07593e-009 -8.31504e-009 4.48142e-009 -6.89623e-009 -1.43335e-008 7.83793e-009 -4.07593e-009 -8.31503e-009 4.48141e-009 7.73091 5.47488 0.417314 -4.07594e-009 -8.31504e-009 4.48143e-009 2.90554 0.965183 0.102902 -4.07594e-009 -8.31503e-009 4.48142e-009 10.2786 0.731801 0.0259123 -4.07594e-009 -8.31503e-009 4.48144e-009 2.22167 -0.733487 -0.20892 -5.08901e-013 -2.62693e-012 6.0664e-013 -59.6432 37.446 15.488 15.331 -8.08676 -28.2584 0.618309 -21.8041 3.22203 3.612e-009 -7.94306e-009 -1.92585e-009 6.25271e-009 -1.36522e-008 -3.27836e-009 3.612e-009 -7.94305e-009 -1.92584e-009 -7.73091 5.47488 -0.417314 3.612e-009 -7.94306e-009 -1.92584e-009 -2.90554 0.965183 -0.102902 3.61199e-009 -7.94305e-009 -1.92584e-009 -10.2786 0.731801 -0.0259123 3.612e-009 -7.94306e-009 -1.92585e-009 -2.22167 -0.733487 0.20892 -2.03217e-016 0 -3.88251e-019 -17.3667 31.125 7.60814 0.0621939 -1.95321 0.521273 -6.66072 -11.9401 -20.9111 2.03217e-016 0 3.88251e-019 57.5583 -47.2526 46.7093 1.04099 58.4553 -1.14795 0.456752 2.5559 -1.57062 
-156.69 65.83 -79.1892 -10.8488 8.19248 54.6746 -11.0686 22.8968 25.3529 1.01096 1.05103 6.52753 -7.54 -29.3681 1.50253 -17.6356 -19.8582 8.98086 -0 0 0 -0 0 0 -3.84687e-013 -2.37862e-012 3.76498e-013 70.94 -22.5559 34.2109 -5.83443 -1.97044 10.1898 -3.12593 43.8438 7.75748 -3.77709e-009 -4.3396e-009 3.60144e-009 -6.36676e-009 -7.42919e-009 6.32281e-009 -3.77708e-009 -4.3396e-009 3.60143e-009 7.73091 5.47488 0.417314 -3.77709e-009 -4.3396e-009 3.60144e-009 2.90554 0.965183 0.102902 -3.77709e-009 -4.3396e-009 3.60143e-009 10.2786 0.731801 0.0259123 -3.7771e-009 -4.3396e-009 3.60145e-009 2.22167 -0.733487 -0.20892 -3.84933e-013 -2.37864e-012 3.762e-013 -54.2799 38.1537 10.0858 15.8289 -8.52925 -29.3123 0.670793 -22.6071 3.35498 1.57312e-009 -4.23669e-009 -1.46401e-009 2.72903e-009 -7.29365e-009 -2.50365e-009 1.57311e-009 -4.23668e-009 -1.464e-009 -7.73091 5.47488 -0.417314 1.57312e-009 -4.23669e-009 -1.464e-009 -2.90554 0.965183 -0.102902 1.57311e-009 -4.23668e-009 -1.464e-009 -10.2786 0.731801 -0.0259123 1.57312e-009 -4.23669e-009 -1.46401e-009 -2.22167 -0.733487 0.20892 -2.03217e-016 0 -3.88251e-019 -16.5572 31.3789 6.4622 0.0602112 -0.34838 0.530585 -6.5355 -10.8288 -21.7338 2.03217e-016 0 3.88251e-019 57.525 -47.7673 47.3154 1.06795 58.8294 -1.16657 0.378502 3.0603 -2.5376 
-155.397 65.2043 -78.7762 -11.269 8.39467 56.1189 -12.4788 22.7612 25.9342 0.964246 1.33237 6.60891 -10.0302 -27.8719 -0.64662 -15.4486 -21.9819 6.33841 -0 0 0 -0 0 0 -2.9956e-013 -1.67691e-012 2.05505e-013 70.2243 -21.6524 31.8089 -5.69457 -1.84024 10.0473 -3.7257 45.8857 8.44192 -2.98955e-009 -2.33268e-009 2.71728e-009 -5.02826e-009 -3.96272e-009 4.77946e-009 -2.98955e-009 -2.33268e-009 2.71727e-009 7.73091 5.47488 0.417314 -2.98955e-009 -2.33268e-009 2.71729e-009 2.90554 0.965183 0.102902 -2.98956e-009 -2.33268e-009 2.71728e-009 10.2786 0.731801 0.0259123 -2.98956e-009 -2.33268e-009 2.7173e-009 2.22167 -0.733487 -0.20892 -2.99786e-013 -1.67693e-012 2.05201e-013 -50.012 37.7911 5.34957 16.218 -8.88301 -30.1529 0.69039 -22.8762 3.40041 8.60047e-010 -2.70226e-009 -1.18408e-009 1.49794e-009 -4.66155e-009 -2.02893e-009 8.60047e-010 -2.70226e-009 -1.18407e-009 -7.73091 5.47488 -0.417314 8.60053e-010 -2.70226e-009 -1.18408e-009 -2.90554 0.965183 -0.102902 8.6004e-010 -2.70226e-009 -1.18408e-009 -10.2786 0.731801 -0.0259123 8.60051e-010 -2.70226e-009 -1.18409e-009 -2.22167 -0.733487 0.20892 -2.03217e-016 0 -3.88251e-019 -15.1869 30.1114 4.82819 0.0557776 3.44413 0.572321 -6.8134 -10.5703 -22.6654 2.03217e-016 0 3.88251e-019 58.1069 -48.5365 48.1137 1.13945 59.7814 -1.20434 0.217077 2.72561 -3.80792 
-154.49 64.6596 -78.4331 -11.9004 8.60243 57.6858 -13.6145 22.4506 25.9274 1.12928 1.55321 6.54233 -12.012 -24.9508 -2.32428 -13.3078 -25.0041 3.91392 -0 0 0 -0 0 0 -2.26069e-013 -6.31706e-013 5.13796e-014 68.6341 -18.8096 28.8411 -6.37405 -2.14261 11.2737 -3.47848 44.7583 8.1074 -1.84051e-009 -1.19413e-009 1.7289e-009 -3.08949e-009 -2.01604e-009 3.04104e-009 -1.8405e-009 -1.19412e-009 1.72888e-009 7.73091 5.47488 0.417314 -1.84051e-009 -1.19413e-009 1.7289e-009 2.90554 0.965183 0.102902 -1.84051e-009 -1.19413e-009 1.7289e-009 10.2786 0.731801 0.0259123 -1.84052e-009 -1.19413e-009 1.72891e-009 2.22167 -0.733487 -0.20892 -2.26256e-013 -6.31724e-013 5.10721e-014 -46.6288 36.6358 1.00014 16.5361 -9.18299 -30.8415 0.681981 -22.7474 3.37902 8.04218e-010 -2.12111e-009 -9.23529e-010 1.40302e-009 -3.66342e-009 -1.58084e-009 8.04218e-010 -2.12111e-009 -9.23519e-010 -7.73091 5.47488 -0.417314 8.04222e-010 -2.12111e-009 -9.23529e-010 -2.90554 0.965183 -0.102902 8.04212e-010 -2.12111e-009 -9.23527e-010 -10.2786 0.731801 -0.0259123 8.0422e-010 -2.12111e-009 -9.23533e-010 -2.22167 -0.733487 0.20892 -2.03217e-016 0 -3.88251e-019 -13.561 27.6929 2.88831 0.0395116 8.88225 0.641716 -7.39119 -10.8878 -23.6572 2.03217e-016 0 3.88251e-019 59.0721 -49.4787 49.0657 1.25018 61.2003 -1.26444 -0.0543935 1.7727 -5.3004 
-153.268 64.0795 -77.9802 -12.5727 8.73151 59.2608 -14.5815 22.2496 25.5943 1.37548 1.70102 6.38895 -13.4233 -21.8578 -3.62121 -11.591 -27.9305 1.70618 -0 0 0 -0 0 0 -1.65129e-013 4.717e-013 -7.61182e-014 67.0838 -15.1879 26.0058 -7.48198 -2.70471 13.2302 -2.8666 42.0002 7.30914 -6.56994e-010 -5.51441e-010 8.45117e-010 -1.09489e-009 -9.30534e-010 1.48038e-009 -6.56988e-010 -5.51437e-010 8.45095e-010 7.73091 5.47488 0.417314 -6.56994e-010 -5.51442e-010 8.45115e-010 2.90554 0.965183 0.102902 -6.56995e-010 -5.51443e-010 8.45115e-010 10.2786 0.731801 0.0259123 -6.57001e-010 -5.51441e-010 8.45127e-010 2.22167 -0.733487 -0.20892 -1.65271e-013 4.71681e-013 -7.64246e-014 -44.0207 35.087 -3.01512 16.8544 -9.49753 -31.5195 0.659251 -22.4087 3.32261 9.90904e-010 -1.94297e-009 -6.72531e-010 1.72624e-009 -3.35508e-009 -1.14654e-009 9.90904e-010 -1.94298e-009 -6.72522e-010 -7.73091 5.47488 -0.417314 9.90906e-010 -1.94298e-009 -6.72533e-010 -2.90554 0.965183 -0.102902 9.90898e-010 -1.94297e-009 -6.72532e-010 -10.2786 0.731801 -0.0259123 9.90904e-010 -1.94297e-009 -6.72538e-010 -2.22167 -0.733487 0.20892 -2.03217e-016 0 -3.88251e-019 -12.0517 24.7994 0.813741 0.00302324 14.9525 0.721379 -7.88359 -11.3194 -24.1655 2.03217e-016 0 3.88251e-019 60.1895 -50.4227 50.0642 1.38574 62.7925 -1.34124 -0.412478 0.628519 -6.83097 
-151.794 63.4583 -77.4876 -13.1042 8.72042 60.7278 -15.4768 22.4442 25.1911 1.57073 1.76307 6.21001 -14.3309 -19.8327 -4.67229 -10.4933 -29.7631 -0.21786 -0 0 0 -0 0 0 -1.17658e-013 1.34802e-012 -1.67228e-013 66.1027 -12.1427 23.7347 -8.64171 -3.35591 15.2779 -2.33897 39.1531 6.5708 2.33955e-010 -3.213e-011 2.74749e-010 4.11136e-010 -4.7597e-011 4.70308e-010 2.33962e-010 -3.21264e-011 2.74727e-010 7.73091 5.47488 0.417314 2.33958e-010 -3.21319e-011 2.74746e-010 2.90554 0.965183 0.102902 2.33956e-010 -3.21334e-011 2.74748e-010 10.2786 0.731801 0.0259123 2.33949e-010 -3.21308e-011 2.74759e-010 2.22167 -0.733487 -0.20892 -1.17761e-013 1.348e-012 -1.67526e-013 -41.9403 33.53 -6.83944 17.2372 -9.88944 -32.3306 0.635831 -22.0478 3.26295 1.00538e-009 -1.61761e-009 -4.21284e-010 1.74959e-009 -2.7924e-009 -7.13208e-010 1.00538e-009 -1.61762e-009 -4.21274e-010 -7.73091 5.47488 -0.417314 1.00538e-009 -1.61761e-009 -4.21287e-010 -2.90554 0.965183 -0.102902 1.00538e-009 -1.61761e-009 -4.21287e-010 -10.2786 0.731801 -0.0259123 1.00538e-009 -1.61761e-009 -4.21293e-010 -2.22167 -0.733487 0.20892 -2.03217e-016 0 -3.88251e-019 -10.9061 22.1221 -1.29633 -0.0494141 20.6417 0.788909 -7.86849 -11.4203 -23.6365 2.03217e-016 0 3.88251e-019 61.1992 -51.2044 50.9676 1.52786 64.2643 -1.42522 -0.779059 -0.283636 -8.21564 
-150.646 62.8246 -77.1191 -13.4515 8.49657 62.1077 -16.2507 23.2121 24.7684 1.67295 1.72135 6.01888 -14.7408 -19.4541 -5.54873 -10.0854 -29.9727 -1.81252 -0 0 0 -0 0 0 -8.71433e-014 2.03278e-012 -2.15939e-013 65.559 -9.96797 22.009 -9.90606 -4.14013 17.5331 -1.85953 35.9798 5.83183 7.14455e-010 3.82985e-010 1.0362e-010 1.23133e-009 6.69612e-010 1.62772e-010 7.14464e-010 3.82986e-010 1.03601e-010 7.73091 5.47488 0.417314 7.1446e-010 3.82981e-010 1.03615e-010 2.90554 0.965183 0.102902 7.14458e-010 3.82979e-010 1.0362e-010 10.2786 0.731801 0.0259123 7.1445e-010 3.82983e-010 1.03629e-010 2.22167 -0.733487 -0.20892 -8.72093e-014 2.03276e-012 -2.16216e-013 -40.2972 31.9899 -10.5478 17.705 -10.3796 -33.3439 0.621331 -21.7851 3.22048 8.06419e-010 -1.03078e-009 -1.87623e-010 1.40064e-009 -1.77782e-009 -3.12201e-010 8.06418e-010 -1.03079e-009 -1.87614e-010 -7.73091 5.47488 -0.417314 8.0642e-010 -1.03078e-009 -1.87627e-010 -2.90554 0.965183 -0.102902 8.06414e-010 -1.03078e-009 -1.87627e-010 -10.2786 0.731801 -0.0259123 8.06418e-010 -1.03078e-009 -1.87636e-010 -2.22167 -0.733487 0.20892 -2.03217e-016 0 -3.88251e-019 -10.0588 19.8554 -3.54919 -0.102534 25.7313 0.830309 -7.18026 -11.0418 -21.7157 2.03217e-016 0 3.88251e-019 62.1519 -51.8289 51.7925 1.6791 65.6245 -1.52091 -1.10512 -0.819369 -9.44109 
